<svg width="206" height="359" viewBox="0 0 206 359" fill="none" xmlns="http://www.w3.org/2000/svg">
    <g clip-path="url(#clip0_299_5859)">
        <rect width="190.266" height="285.924" rx="95.1328" fill="#D8DAA9"/>
    </g>
    <circle cx="80.4419" cy="90.8897" r="20.6392" fill="#FDFAF6"/>
    <circle cx="133.386" cy="90.8897" r="20.6392" fill="#FDFAF6"/>
    <circle cx="79.5453" cy="90.8901" r="20.0365" stroke="black" stroke-width="3"/>
    <circle cx="134.284" cy="90.8901" r="20.0365" stroke="black" stroke-width="3"/>
    <path d="M100.183 90.8899C101.448 89.8538 104.738 89.0952 106.74 89.0952C108.742 89.0952 111.802 89.8538 113.643 90.8899" stroke="black" stroke-width="3" stroke-linecap="round"/>
    <ellipse cx="127.104" cy="96.7224" rx="5.38413" ry="6.73017" fill="black"/>
    <ellipse cx="86.724" cy="97.6203" rx="5.38413" ry="6.73017" fill="black"/>
    <path d="M46.2421 68.159C46.2421 68.159 47.1294 65.2525 51.0041 61.3608C54.8787 57.4691 58.9036 56.7604 58.9036 56.7604" stroke="black" stroke-width="3" stroke-linecap="round"/>
    <path d="M163.233 68.4044C163.233 68.4044 162.286 65.5167 158.333 61.7049C154.38 57.8931 150.341 57.2667 150.341 57.2667" stroke="black" stroke-width="3" stroke-linecap="round"/>
    <path d="M113.644 127.682C113.644 132.638 110.43 136.655 106.465 136.655C102.5 136.655 97.043 132.638 97.043 127.682C97.043 122.726 102.5 120.952 106.465 120.952C110.43 120.952 113.644 122.726 113.644 127.682Z" fill="black"/>
    <path d="M104.67 124.99C108.293 124.99 111.412 127.139 112.829 130.23C111.464 132.967 108.527 134.861 105.12 134.861C101.333 134.861 98.1234 132.521 97.0127 129.283C98.5899 126.708 101.429 124.99 104.67 124.99Z" fill="#E4B69C"/>
    <path d="M106.466 122.452C108.256 122.452 109.66 122.856 110.593 123.619C111.472 124.338 112.145 125.552 112.145 127.682C112.144 132.139 109.307 135.156 106.466 135.156C104.905 135.156 102.64 134.324 100.741 132.844C98.8386 131.362 97.6466 129.507 97.6465 127.682C97.6465 125.986 98.6897 124.718 100.501 123.794C102.327 122.863 104.661 122.452 106.466 122.452Z" stroke="black" stroke-width="3"/>
    <path d="M92.8272 219.568C101.118 202.233 101.011 166.503 100.203 146.871C106.411 149.249 123.964 154.757 134.033 155.201C146.213 155.737 167.344 151.419 167.344 151.419C167.344 151.419 158.335 208.758 151.974 229.76C126.944 242.564 91.3469 222.664 92.8272 219.568Z" fill="#FDFAF6"/>
    <ellipse cx="102.494" cy="193.108" rx="13.1399" ry="10.5119" transform="rotate(-40.1681 102.494 193.108)" fill="black"/>
    <ellipse cx="153.63" cy="191.938" rx="13.1399" ry="10.5119" transform="rotate(19.4421 153.63 191.938)" fill="black"/>
    <path d="M80.6689 278.04C79.5475 294.546 78.6074 340.456 82.5412 345.816" stroke="black" stroke-width="3" stroke-linecap="round"/>
    <path d="M119.836 278.04C118.838 294.554 118.241 340.47 122.214 345.8" stroke="black" stroke-width="3" stroke-linecap="round"/>
    <path d="M12.356 142.962C7.62568 162.584 8.49206 202.385 41.2638 221.276C56.7645 230.211 90.4026 210.238 96.1842 198.675" stroke="black" stroke-width="3" stroke-linecap="round"/>
    <path d="M190.792 148.744C205.508 163.986 208.241 203.09 196.048 216.545C183.854 230.001 163.461 204.982 159.256 196.047" stroke="black" stroke-width="3" stroke-linecap="round"/>
    <ellipse cx="82.7857" cy="346.909" rx="18.9214" ry="11.5631" fill="black"/>
    <ellipse cx="134.705" cy="346.909" rx="18.9214" ry="11.5631" fill="black"/>
    <defs>
        <clipPath id="clip0_299_5859">
            <rect width="190.266" height="285.924" rx="95.1328" fill="white"/>
        </clipPath>
    </defs>
</svg>
